<?xml version="1.0" encoding="utf-8"?>
<!-- Generator: Adobe Illustrator 25.1.0, SVG Export Plug-In . SVG Version: 6.00 Build 0)  -->
<svg version="1.1" id="Layer_1" xmlns="http://www.w3.org/2000/svg" xmlns:xlink="http://www.w3.org/1999/xlink" x="0px" y="0px"
	 viewBox="0 0 206.26 15.81" style="enable-background:new 0 0 206.26 15.81;" xml:space="preserve">
<g>
	<path d="M0.73,14.61V0.91h2v11.68h7.6v2.02H0.73z"/>
	<path d="M15.73,4.87h2.04l5.14,9.73h-2.08l-0.75-1.43h-1.14c-0.59,0-1.17,0.05-1.74,0.15c-0.58,0.1-1.1,0.22-1.57,0.36
		c-0.47,0.14-0.87,0.29-1.19,0.44c-0.32,0.15-0.52,0.28-0.6,0.38l-0.06,0.11H11.8l4.55-8.54L15.73,4.87z M19.19,11.45l-1.86-3.53
		l-2.26,4.35c0.31-0.16,0.78-0.34,1.41-0.53c0.64-0.2,1.45-0.29,2.44-0.29H19.19z"/>
	<path d="M35.64,9.76c0,0.62-0.09,1.19-0.27,1.69c-0.18,0.5-0.43,0.95-0.74,1.36c0.16,0.09,0.32,0.16,0.49,0.21
		c0.16,0.06,0.34,0.09,0.52,0.1l-0.97,1.65c-0.31-0.02-0.58-0.1-0.83-0.22c-0.24-0.12-0.5-0.27-0.75-0.44
		c-0.47,0.24-0.96,0.44-1.48,0.58c-0.52,0.14-1.06,0.21-1.61,0.21c-0.72,0-1.42-0.11-2.09-0.34c-0.67-0.23-1.27-0.56-1.79-0.99
		c-0.52-0.43-0.94-0.97-1.25-1.6c-0.31-0.63-0.47-1.35-0.47-2.16c0-0.81,0.16-1.52,0.48-2.15c0.32-0.62,0.74-1.15,1.27-1.58
		c0.53-0.43,1.13-0.75,1.8-0.97c0.67-0.22,1.37-0.33,2.08-0.33c0.71,0,1.4,0.1,2.08,0.31c0.68,0.21,1.28,0.52,1.8,0.94
		c0.52,0.42,0.94,0.94,1.26,1.56C35.49,8.22,35.64,8.94,35.64,9.76z M31.07,10.68c0.37,0.04,0.7,0.14,0.99,0.32
		c0.29,0.18,0.63,0.41,1.01,0.71c0.22-0.26,0.4-0.54,0.52-0.86c0.13-0.32,0.19-0.67,0.19-1.07c0-0.53-0.11-0.98-0.34-1.37
		c-0.23-0.39-0.52-0.7-0.87-0.95c-0.35-0.25-0.75-0.43-1.2-0.55c-0.45-0.12-0.89-0.17-1.35-0.17c-0.46,0-0.91,0.06-1.35,0.18
		c-0.43,0.12-0.82,0.31-1.15,0.57c-0.34,0.26-0.61,0.58-0.82,0.97c-0.21,0.39-0.31,0.86-0.31,1.4c0,0.54,0.1,1,0.31,1.4
		c0.21,0.39,0.48,0.72,0.82,0.97s0.73,0.45,1.16,0.57c0.43,0.12,0.88,0.18,1.35,0.18c0.41,0,0.82-0.06,1.23-0.18
		c-0.02,0-0.04-0.01-0.04-0.02c-0.18-0.1-0.37-0.19-0.55-0.27c-0.18-0.08-0.38-0.13-0.59-0.16L31.07,10.68z"/>
	<path d="M43.17,14.9c-0.66,0-1.27-0.08-1.83-0.24c-0.56-0.16-1.04-0.4-1.45-0.73c-0.41-0.32-0.73-0.74-0.96-1.25
		c-0.23-0.51-0.34-1.11-0.34-1.81V5.09h1.89v5.79c0,0.4,0.06,0.74,0.19,1.01c0.13,0.27,0.31,0.49,0.55,0.65
		c0.24,0.16,0.52,0.28,0.85,0.35c0.33,0.07,0.7,0.1,1.1,0.1c0.4,0,0.77-0.03,1.1-0.1c0.33-0.07,0.62-0.18,0.85-0.35
		c0.24-0.17,0.42-0.38,0.55-0.65c0.13-0.27,0.19-0.61,0.19-1.01V5.09h1.89v5.79c0,0.7-0.11,1.3-0.34,1.81
		c-0.23,0.51-0.54,0.92-0.95,1.25c-0.41,0.32-0.89,0.57-1.45,0.73c-0.56,0.16-1.17,0.24-1.83,0.24H43.17z"/>
	<path d="M53.39,4.87h2.04l5.14,9.73h-2.08l-0.75-1.43H56.6c-0.59,0-1.17,0.05-1.74,0.15c-0.58,0.1-1.1,0.22-1.57,0.36
		c-0.47,0.14-0.87,0.29-1.19,0.44c-0.32,0.15-0.52,0.28-0.6,0.38l-0.06,0.11h-1.98l4.55-8.54L53.39,4.87z M56.84,11.45l-1.86-3.53
		l-2.26,4.35c0.31-0.16,0.78-0.34,1.41-0.53c0.64-0.2,1.45-0.29,2.44-0.29H56.84z"/>
	<path d="M63.16,14.61V5.09h1.97v7.6h5.05v1.91H63.16z"/>
	<path d="M74.99,12.7h5.97v1.91h-7.84V5.09h7.49v1.89h-5.62V9.3c0.42-0.24,0.88-0.4,1.39-0.46c0.51-0.06,1.04-0.09,1.59-0.09h1.4
		v1.89h-1.4c-0.44,0-0.81,0.01-1.09,0.03c-0.29,0.02-0.54,0.05-0.74,0.08c-0.21,0.04-0.4,0.09-0.57,0.17
		c-0.17,0.07-0.36,0.16-0.57,0.28V12.7z"/>
	<path d="M95.53,8.93h-1.6c-0.44,0-0.88,0.03-1.32,0.1c-0.44,0.07-0.86,0.21-1.28,0.43v5.14h-2V0.91h7.21c0.63,0,1.2,0.09,1.73,0.27
		c0.53,0.18,0.98,0.44,1.37,0.78c0.39,0.34,0.69,0.77,0.9,1.27c0.21,0.5,0.32,1.08,0.32,1.73c0,1.04-0.28,1.89-0.84,2.55
		c-0.56,0.66-1.34,1.11-2.33,1.36l1.07,2.19c0.22,0.32,0.41,0.58,0.57,0.77c0.16,0.2,0.32,0.35,0.46,0.47
		c0.15,0.12,0.3,0.2,0.46,0.24c0.16,0.04,0.35,0.06,0.57,0.06l0.64-0.02v2.04c-0.39,0-0.79-0.01-1.19-0.04s-0.78-0.1-1.15-0.24
		c-0.37-0.13-0.72-0.35-1.05-0.64c-0.33-0.29-0.63-0.71-0.88-1.25L95.53,8.93z M91.33,7.45C91.75,7.2,92.17,7.05,92.6,7
		c0.43-0.06,0.87-0.08,1.32-0.08h2.61c0.7,0,1.26-0.16,1.69-0.49c0.43-0.33,0.64-0.85,0.64-1.58c0-0.35-0.06-0.65-0.18-0.89
		c-0.12-0.24-0.29-0.44-0.5-0.59c-0.21-0.15-0.45-0.26-0.73-0.33c-0.28-0.07-0.59-0.1-0.92-0.1h-5.2V7.45z"/>
	<path d="M106.81,12.7h5.97v1.91h-7.84V5.09h7.49v1.89h-5.62V9.3c0.42-0.24,0.88-0.4,1.39-0.46c0.51-0.06,1.04-0.09,1.59-0.09h1.4
		v1.89h-1.4c-0.44,0-0.81,0.01-1.09,0.03c-0.29,0.02-0.54,0.05-0.74,0.08c-0.21,0.04-0.4,0.09-0.57,0.17
		c-0.17,0.07-0.36,0.16-0.57,0.28V12.7z"/>
	<path d="M124.96,13.54c-0.53,0.45-1.13,0.79-1.8,1.02c-0.67,0.23-1.38,0.34-2.11,0.34c-0.72,0-1.42-0.11-2.09-0.34
		c-0.67-0.23-1.27-0.56-1.79-0.99c-0.52-0.43-0.94-0.97-1.25-1.6c-0.31-0.63-0.47-1.35-0.47-2.16c0-0.81,0.16-1.52,0.48-2.15
		c0.32-0.62,0.74-1.15,1.27-1.58c0.53-0.43,1.13-0.75,1.8-0.97c0.67-0.22,1.37-0.33,2.08-0.33c0.7,0,1.38,0.1,2.04,0.3
		c0.66,0.2,1.25,0.5,1.78,0.89l-1.27,1.47c-0.36-0.24-0.76-0.43-1.2-0.56c-0.45-0.13-0.9-0.19-1.35-0.19
		c-0.47,0-0.91,0.06-1.34,0.19c-0.43,0.13-0.81,0.32-1.16,0.58c-0.34,0.26-0.62,0.58-0.82,0.98c-0.2,0.4-0.3,0.87-0.3,1.4
		c0,0.54,0.1,1,0.31,1.4s0.48,0.72,0.83,0.97s0.73,0.45,1.17,0.58c0.43,0.13,0.88,0.19,1.33,0.19c0.51,0,1.01-0.09,1.5-0.27
		c0.48-0.18,0.91-0.43,1.28-0.76L124.96,13.54z"/>
	<path d="M128.27,14.61V5.09h1.87v9.51H128.27z"/>
	<path d="M142.79,13.54c-0.53,0.45-1.13,0.79-1.8,1.02c-0.67,0.23-1.38,0.34-2.11,0.34c-0.72,0-1.42-0.11-2.09-0.34
		c-0.67-0.23-1.27-0.56-1.79-0.99c-0.52-0.43-0.94-0.97-1.25-1.6c-0.31-0.63-0.47-1.35-0.47-2.16c0-0.81,0.16-1.52,0.48-2.15
		c0.32-0.62,0.74-1.15,1.27-1.58c0.53-0.43,1.13-0.75,1.8-0.97c0.67-0.22,1.37-0.33,2.08-0.33c0.7,0,1.38,0.1,2.04,0.3
		c0.66,0.2,1.26,0.5,1.78,0.89l-1.27,1.47c-0.36-0.24-0.76-0.43-1.2-0.56c-0.45-0.13-0.9-0.19-1.35-0.19
		c-0.46,0-0.91,0.06-1.34,0.19c-0.43,0.13-0.82,0.32-1.16,0.58c-0.34,0.26-0.62,0.58-0.82,0.98c-0.2,0.4-0.3,0.87-0.3,1.4
		c0,0.54,0.1,1,0.31,1.4c0.21,0.39,0.48,0.72,0.83,0.97c0.34,0.26,0.73,0.45,1.17,0.58c0.43,0.13,0.88,0.19,1.33,0.19
		c0.51,0,1.01-0.09,1.5-0.27c0.48-0.18,0.91-0.43,1.28-0.76L142.79,13.54z"/>
	<path d="M146.1,14.61V5.09h1.97v7.6h5.05v1.91H146.1z"/>
	<path d="M158.33,4.87h2.04l5.14,9.73h-2.08l-0.75-1.43h-1.14c-0.59,0-1.17,0.05-1.75,0.15c-0.58,0.1-1.1,0.22-1.57,0.36
		c-0.47,0.14-0.87,0.29-1.19,0.44c-0.33,0.15-0.52,0.28-0.6,0.38l-0.06,0.11h-1.98l4.56-8.54L158.33,4.87z M161.79,11.45l-1.86-3.53
		l-2.26,4.35c0.31-0.16,0.78-0.34,1.41-0.53c0.64-0.2,1.45-0.29,2.44-0.29H161.79z"/>
	<path d="M172.66,14.61h-2.44l-4.13-9.51h2.13l3.21,7.58l3.29-7.58h2.15L172.66,14.61z"/>
	<path d="M181.68,12.7h5.97v1.91h-7.84V5.09h7.49v1.89h-5.62V9.3c0.42-0.24,0.88-0.4,1.39-0.46c0.51-0.06,1.04-0.09,1.59-0.09h1.4
		v1.89h-1.4c-0.44,0-0.81,0.01-1.09,0.03c-0.29,0.02-0.54,0.05-0.74,0.08c-0.21,0.04-0.4,0.09-0.57,0.17
		c-0.17,0.07-0.36,0.16-0.57,0.28V12.7z"/>
	<path d="M191.23,14.61V5.09h1.87v9.51H191.23z"/>
	<path d="M203.53,7.45c-0.37-0.31-0.79-0.52-1.27-0.64s-1-0.18-1.55-0.18c-0.23,0-0.46,0.03-0.69,0.08
		c-0.22,0.06-0.43,0.13-0.61,0.22s-0.33,0.2-0.45,0.33s-0.17,0.26-0.17,0.4c0,0.15,0.02,0.28,0.06,0.39
		c0.04,0.12,0.13,0.21,0.27,0.29c0.14,0.08,0.35,0.14,0.62,0.19c0.27,0.05,0.64,0.07,1.11,0.07c1,0,1.81,0.08,2.43,0.24
		c0.62,0.16,1.09,0.37,1.42,0.64c0.33,0.27,0.55,0.58,0.66,0.94c0.11,0.36,0.17,0.72,0.17,1.1c0,0.58-0.12,1.07-0.37,1.5
		c-0.25,0.42-0.58,0.77-1.02,1.05c-0.43,0.28-0.95,0.48-1.53,0.62c-0.59,0.14-1.22,0.21-1.89,0.21c-0.84,0-1.64-0.18-2.4-0.54
		c-0.75-0.36-1.39-0.85-1.92-1.48l1.36-1.38c0.15,0.15,0.3,0.31,0.47,0.5c0.17,0.18,0.36,0.36,0.59,0.51s0.49,0.29,0.8,0.39
		c0.31,0.1,0.67,0.16,1.1,0.16c0.88,0,1.59-0.13,2.13-0.39c0.54-0.26,0.81-0.64,0.81-1.16c0-0.43-0.24-0.71-0.73-0.85
		c-0.48-0.13-1.22-0.2-2.21-0.2c-0.58,0-1.1-0.05-1.58-0.15c-0.48-0.1-0.89-0.26-1.24-0.49c-0.35-0.23-0.62-0.52-0.82-0.88
		c-0.2-0.36-0.29-0.8-0.29-1.31c0-0.43,0.11-0.82,0.32-1.18c0.21-0.36,0.5-0.66,0.85-0.91c0.36-0.25,0.77-0.44,1.25-0.58
		c0.48-0.13,0.98-0.2,1.51-0.2c0.7,0,1.38,0.08,2.04,0.24c0.66,0.16,1.34,0.48,2.04,0.96L203.53,7.45z"/>
</g>
</svg>
