<svg xmlns="http://www.w3.org/2000/svg" viewBox="0 0 206.26 15.81"><path d="M.73 14.61V.91h2v11.68h7.6v2.02H.73zm15-9.74h2.04l5.14 9.73h-2.08l-.75-1.43h-1.14c-.59 0-1.17.05-1.74.15-.58.1-1.1.22-1.57.36-.47.14-.87.29-1.19.44-.32.15-.52.28-.6.38l-.06.11H11.8l4.55-8.54-.62-1.2zm3.46 6.58l-1.86-3.53-2.26 4.35c.31-.16.78-.34 1.41-.53.64-.2 1.45-.29 2.44-.29h.27zm16.45-1.69c0 .62-.09 1.19-.27 1.69-.18.5-.43.95-.74 1.36.16.09.32.16.49.21.16.06.34.09.52.1l-.97 1.65c-.31-.02-.58-.1-.83-.22-.24-.12-.5-.27-.75-.44-.47.24-.96.44-1.48.58-.52.14-1.06.21-1.61.21-.72 0-1.42-.11-2.09-.34-.67-.23-1.27-.56-1.79-.99-.52-.43-.94-.97-1.25-1.6-.31-.63-.47-1.35-.47-2.16s.16-1.52.48-2.15c.32-.62.74-1.15 1.27-1.58.53-.43 1.13-.75 1.8-.97.67-.22 1.37-.33 2.08-.33s1.4.1 2.08.31c.68.21 1.28.52 1.8.94.52.42.94.94 1.26 1.56.32.63.47 1.35.47 2.17zm-4.57.92c.37.04.7.14.99.32.29.18.63.41 1.01.71.22-.26.4-.54.52-.86.13-.32.19-.67.19-1.07 0-.53-.11-.98-.34-1.37-.23-.39-.52-.7-.87-.95s-.75-.43-1.2-.55c-.45-.12-.89-.17-1.35-.17-.46 0-.91.06-1.35.18-.43.12-.82.31-1.15.57-.34.26-.61.58-.82.97-.21.39-.31.86-.31 1.4 0 .54.1 1 .31 1.4.21.39.48.72.82.97s.73.45 1.16.57a5 5 0 001.35.18c.41 0 .82-.06 1.23-.18-.02 0-.04-.01-.04-.02-.18-.1-.37-.19-.55-.27a2.23 2.23 0 00-.59-.16l.99-1.67zm12.1 4.22c-.66 0-1.27-.08-1.83-.24-.56-.16-1.04-.4-1.45-.73a3.25 3.25 0 01-.96-1.25c-.23-.51-.34-1.11-.34-1.81V5.09h1.89v5.79c0 .4.06.74.19 1.01s.31.49.55.65c.24.16.52.28.85.35.33.07.7.1 1.1.1.4 0 .77-.03 1.1-.1.33-.07.62-.18.85-.35.24-.17.42-.38.55-.65.13-.27.19-.61.19-1.01V5.09h1.89v5.79c0 .7-.11 1.3-.34 1.81-.23.51-.54.92-.95 1.25-.41.32-.89.57-1.45.73-.56.16-1.17.24-1.83.24h-.01zM53.39 4.87h2.04l5.14 9.73h-2.08l-.75-1.43H56.6c-.59 0-1.17.05-1.74.15-.58.1-1.1.22-1.57.36-.47.14-.87.29-1.19.44-.32.15-.52.28-.6.38l-.06.11h-1.98l4.55-8.54-.62-1.2zm3.45 6.58l-1.86-3.53-2.26 4.35c.31-.16.78-.34 1.41-.53.64-.2 1.45-.29 2.44-.29h.27zm6.32 3.16V5.09h1.97v7.6h5.05v1.91h-7.02zm11.83-1.91h5.97v1.91h-7.84V5.09h7.49v1.89h-5.62V9.3c.42-.24.88-.4 1.39-.46.51-.06 1.04-.09 1.59-.09h1.4v1.89h-1.4c-.44 0-.81.01-1.09.03-.29.02-.54.05-.74.08-.21.04-.4.09-.57.17-.17.07-.36.16-.57.28v1.5zm20.54-3.77h-1.6c-.44 0-.88.03-1.32.1-.44.07-.86.21-1.28.43v5.14h-2V.91h7.21c.63 0 1.2.09 1.73.27.53.18.98.44 1.37.78.39.34.69.77.9 1.27.21.5.32 1.08.32 1.73 0 1.04-.28 1.89-.84 2.55-.56.66-1.34 1.11-2.33 1.36l1.07 2.19c.22.32.41.58.57.77.16.2.32.35.46.47.15.12.3.2.46.24.16.04.35.06.57.06l.64-.02v2.04c-.39 0-.79-.01-1.19-.04s-.78-.1-1.15-.24c-.37-.13-.72-.35-1.05-.64-.33-.29-.63-.71-.88-1.25l-1.66-3.52zm-4.2-1.48c.42-.25.84-.4 1.27-.45.43-.06.87-.08 1.32-.08h2.61c.7 0 1.26-.16 1.69-.49.43-.33.64-.85.64-1.58 0-.35-.06-.65-.18-.89s-.29-.44-.5-.59a2.12 2.12 0 00-.73-.33c-.28-.07-.59-.1-.92-.1h-5.2v4.51zm15.48 5.25h5.97v1.91h-7.84V5.09h7.49v1.89h-5.62V9.3c.42-.24.88-.4 1.39-.46.51-.06 1.04-.09 1.59-.09h1.4v1.89h-1.4c-.44 0-.81.01-1.09.03-.29.02-.54.05-.74.08-.21.04-.4.09-.57.17-.17.07-.36.16-.57.28v1.5zm18.15.84c-.53.45-1.13.79-1.8 1.02-.67.23-1.38.34-2.11.34-.72 0-1.42-.11-2.09-.34-.67-.23-1.27-.56-1.79-.99-.52-.43-.94-.97-1.25-1.6-.31-.63-.47-1.35-.47-2.16s.16-1.52.48-2.15c.32-.62.74-1.15 1.27-1.58.53-.43 1.13-.75 1.8-.97.67-.22 1.37-.33 2.08-.33.7 0 1.38.1 2.04.3.66.2 1.25.5 1.78.89l-1.27 1.47c-.36-.24-.76-.43-1.2-.56-.45-.13-.9-.19-1.35-.19-.47 0-.91.06-1.34.19-.43.13-.81.32-1.16.58-.34.26-.62.58-.82.98-.2.4-.3.87-.3 1.4 0 .54.1 1 .31 1.4s.48.72.83.97.73.45 1.17.58c.43.13.88.19 1.33.19.51 0 1.01-.09 1.5-.27.48-.18.91-.43 1.28-.76l1.08 1.59zm3.31 1.07V5.09h1.87v9.51h-1.87zm14.52-1.07c-.53.45-1.13.79-1.8 1.02-.67.23-1.38.34-2.11.34-.72 0-1.42-.11-2.09-.34-.67-.23-1.27-.56-1.79-.99-.52-.43-.94-.97-1.25-1.6-.31-.63-.47-1.35-.47-2.16s.16-1.52.48-2.15c.32-.62.74-1.15 1.27-1.58.53-.43 1.13-.75 1.8-.97.67-.22 1.37-.33 2.08-.33.7 0 1.38.1 2.04.3.66.2 1.26.5 1.78.89l-1.27 1.47c-.36-.24-.76-.43-1.2-.56-.45-.13-.9-.19-1.35-.19-.46 0-.91.06-1.34.19-.43.13-.82.32-1.16.58-.34.26-.62.58-.82.98-.2.4-.3.87-.3 1.4 0 .54.1 1 .31 1.4.21.39.48.72.83.97.34.26.73.45 1.17.58.43.13.88.19 1.33.19.51 0 1.01-.09 1.5-.27.48-.18.91-.43 1.28-.76l1.08 1.59zm3.31 1.07V5.09h1.97v7.6h5.05v1.91h-7.02zm12.23-9.74h2.04l5.14 9.73h-2.08l-.75-1.43h-1.14c-.59 0-1.17.05-1.75.15-.58.1-1.1.22-1.57.36-.47.14-.87.29-1.19.44-.33.15-.52.28-.6.38l-.06.11h-1.98l4.56-8.54-.62-1.2zm3.46 6.58l-1.86-3.53-2.26 4.35c.31-.16.78-.34 1.41-.53.64-.2 1.45-.29 2.44-.29h.27zm10.87 3.16h-2.44l-4.13-9.51h2.13l3.21 7.58 3.29-7.58h2.15l-4.21 9.51zm9.02-1.91h5.97v1.91h-7.84V5.09h7.49v1.89h-5.62V9.3c.42-.24.88-.4 1.39-.46.51-.06 1.04-.09 1.59-.09h1.4v1.89h-1.4c-.44 0-.81.01-1.09.03-.29.02-.54.05-.74.08-.21.04-.4.09-.57.17-.17.07-.36.16-.57.28v1.5zm9.55 1.91V5.09h1.87v9.51h-1.87zm12.3-7.16c-.37-.31-.79-.52-1.27-.64s-1-.18-1.55-.18c-.23 0-.46.03-.69.08-.22.06-.43.13-.61.22s-.33.2-.45.33-.17.26-.17.4c0 .15.02.28.06.39.04.12.13.21.27.29.14.08.35.14.62.19.27.05.64.07 1.11.07 1 0 1.81.08 2.43.24.62.16 1.09.37 1.42.64.33.27.55.58.66.94.11.36.17.72.17 1.1 0 .58-.12 1.07-.37 1.5-.25.42-.58.77-1.02 1.05-.43.28-.95.48-1.53.62-.59.14-1.22.21-1.89.21-.84 0-1.64-.18-2.4-.54-.75-.36-1.39-.85-1.92-1.48l1.36-1.38c.15.15.3.31.47.5.17.18.36.36.59.51s.49.29.8.39c.31.1.67.16 1.1.16.88 0 1.59-.13 2.13-.39.54-.26.81-.64.81-1.16 0-.43-.24-.71-.73-.85-.48-.13-1.22-.2-2.21-.2-.58 0-1.1-.05-1.58-.15-.48-.1-.89-.26-1.24-.49-.35-.23-.62-.52-.82-.88-.2-.36-.29-.8-.29-1.31 0-.43.11-.82.32-1.18.21-.36.5-.66.85-.91.36-.25.77-.44 1.25-.58.48-.13.98-.2 1.51-.2.7 0 1.38.08 2.04.24.66.16 1.34.48 2.04.96l-1.27 1.49z"/></svg>